<svg xmlns="http://www.w3.org/2000/svg" xmlns:xlink="http://www.w3.org/1999/xlink" width="462" height="462" viewBox="0 0 462 462">
    <defs>
        <circle id="a" cx="208" cy="208" r="208"/>
        <filter id="b" width="116.6%" height="116.6%" x="-8.3%" y="-8.3%" filterUnits="objectBoundingBox">
            <feMorphology in="SourceAlpha" operator="dilate" radius="1" result="shadowSpreadOuter1"/>
            <feOffset in="shadowSpreadOuter1" result="shadowOffsetOuter1"/>
            <feGaussianBlur in="shadowOffsetOuter1" result="shadowBlurOuter1" stdDeviation="10.5"/>
            <feColorMatrix in="shadowBlurOuter1" values="0 0 0 0 0.55362424 0 0 0 0 0.718573886 0 0 0 0 0.910900298 0 0 0 0.246263587 0"/>
        </filter>
        <ellipse id="d" cx="207.861" cy="207.813" rx="207.861" ry="207.813"/>
        <path id="f" d="M62.153 71.566H.433V.27h61.72v71.297z"/>
        <path id="h" d="M59.747 71.566H.15V.27h59.597z"/>
        <path id="j" d="M0 275h348V0H0z"/>
        <path id="k" d="M0 163.084h158V.1H0z"/>
    </defs>
    <g fill="none" fill-rule="evenodd" transform="translate(23 23)">
        <mask id="c" fill="#fff">
            <use xlink:href="#a"/>
        </mask>
        <use fill="#000" filter="url(#b)" xlink:href="#a"/>
        <use fill="#FFF" xlink:href="#a"/>
        <g mask="url(#c)">
            <mask id="e" fill="#fff">
                <use xlink:href="#d"/>
            </mask>
            <use fill="#FFF" xlink:href="#d"/>
            <g mask="url(#e)" opacity=".267">
                <path fill="#A3C0D0" d="M102.182 74.382c25.232-12.753 106.533-11.335 106.533-11.335L212 243H37v-35.622l25.231-40.185c7.71-49.594 39.95-92.81 39.95-92.81z"/>
                <path fill="#A3C0D0" d="M313.818 74.382s32.24 43.217 39.951 92.811L379 207.378V243H204l3.284-179.953s81.303-1.418 106.534 11.335"/>
                <path fill="#225D89" d="M366.502 298.43c-110.201 11.292-215.341 11.506-315.203.162-8.152-.927-14.299-7.66-14.299-15.659V267h344v15.754c0 8.07-6.264 14.832-14.498 15.676"/>
                <g transform="translate(307 267)">
                    <mask id="g" fill="#fff">
                        <use xlink:href="#f"/>
                    </mask>
                    <path fill="#234A66" d="M53.639 71.567H8.948c-4.703 0-8.515-3.605-8.515-8.05V8.32C.433 3.874 4.245.27 8.948.27h44.69c4.704 0 8.515 3.604 8.515 8.05v55.196c0 4.446-3.811 8.05-8.514 8.05" mask="url(#g)"/>
                </g>
                <g transform="translate(48 267)">
                    <mask id="i" fill="#fff">
                        <use xlink:href="#h"/>
                    </mask>
                    <path fill="#234A66" d="M51.526 71.567H8.372c-4.541 0-8.222-3.605-8.222-8.05V8.32C.15 3.874 3.83.27 8.372.27h43.154c4.54 0 8.221 3.604 8.221 8.05v55.196c0 4.446-3.68 8.05-8.221 8.05" mask="url(#i)"/>
                </g>
                <path fill="#A3C0D0" d="M336.325 177.312c-2.956-7.167 14.687-34.115 34.916-32.216 5.18.336 15.317 17.42-1.662 26.932-14.912 8.353-30.298 12.451-33.254 5.284M79.675 171.312c2.956-7.166-14.687-34.114-34.916-32.217-5.18.338-15.317 17.422 1.663 26.934 14.91 8.352 30.296 12.45 33.253 5.283"/>
                <path fill="#234A66" d="M115.479 81.463S74.952 133.222 74 163.298l129.612.702L206 73.07s-49.504-1.4-90.521 8.393"/>
                <path fill="#234A66" d="M295.94 81.463s40.117 51.759 41.06 81.835L190 164l16.335-90.93s49.002-1.4 89.605 8.393"/>
                <path fill="#A3C0D0" d="M381 268.477c-120.06 17.283-235.19 18.763-344 0V243h344v25.477z"/>
                <path fill="#FFF" d="M48.226 188L69 205.19 80 227l-43.795-6.183s-9.83-19.112 12.02-32.817M367.774 188L347 205.19 336 227l43.795-6.183s9.83-19.112-12.02-32.817"/>
                <path fill="#225D89" d="M109 207h197s-39.32 34.48-106.077 30.712C133.165 233.944 109 207 109 207"/>
                <path fill="#F6FAF8" d="M92 266h29v-12H92zM288 266h29v-12h-29z"/>
            </g>
            <g mask="url(#e)">
                <g transform="translate(117 115)">
                    <mask id="l" fill="#fff">
                        <use xlink:href="#k"/>
                    </mask>
                    <path fill="#F3D4AC" d="M137.686 66.735L97.66 30.116h5.869c6.02 0 11.736-2.402 15.95-6.603l8.427-8.405 2.257-2.251C134.827 8.204 131.516.1 124.745.1H61.996A22.527 22.527 0 0 0 41.9 12.427L35.06 25.913a7.681 7.681 0 0 1-6.852 4.203H0V135.17h49.506l21.368 21.31a22.469 22.469 0 0 0 15.95 6.604c2.257 0 4.515-.3 6.772-1.05L158 135.17l-20.314-68.435z" mask="url(#l)"/>
                </g>
                <path fill="#2E85E5" d="M133 250H-40.266c-4.159 0-7.53-3.358-7.53-7.5v-90c0-4.142 3.371-7.5 7.53-7.5H133v105z"/>
                <path fill="#6C97B7" d="M440.479 250h-157.44L268 235v-75l15.038-15h157.44c4.155 0 7.522 3.358 7.522 7.5v90c0 4.142-3.367 7.5-7.521 7.5"/>
                <path fill="#FEEBD4" d="M195.39 145a15.063 15.063 0 0 0-13.47 8.294L159 198.964a30.118 30.118 0 0 0 15.322 2.344c10.694-1.142 19.703-8.59 24.513-18.174l4.082-8.135h22.099c3.962 0 7.844 1.604 10.645 4.394l33.228 66.29c1.24 2.634 4.608 4.316 7.527 4.316H299V145H195.39z"/>
            </g>
        </g>
    </g>
</svg>
